# xmcd
#
# Track frame offsets:
#	150
#	24672
#	45946
#	70997
#	96140
#	119298
#	144389
#	168790
#	194036
#	218617
#	238702
#	261901
#
# Disc length: 3824 seconds
#
# Revision: 0
# Processed by: cddbd v1.5.2PL0 Copyright (c) Steve Scherf et al.
# Submitted via: EasyCDDAExtractor 16.0.6.1
#
DISCID=a60eee0c
DTITLE=Vários Artistas - CARNAVAL DE SÃO PAULO - SAMBAS DE ENREDO 2018 GRUPO D
DTITLE=E ACESSO 2
DYEAR=1900
DGENRE=
TTITLE0=G.R.C.E.S. ESTRELA DO 3º MILÊNIO - NA FORÇA DA CORUJA, DEIXE A LENDA T
TTITLE0=E GUIAR
TTITLE1=G.R.E.S. MOCIDADE UNIDA DA MOOCA - A SANTÍSSIMA TRINDADE DE OYÓZ
TTITLE2=G.R.C.E.S. DOM BOSCO - BEM-AVENTURADOS OS HOMENS E MULHERES DE BOA VON
TTITLE2=TADE
TTITLE3=G.R.C.E.S. UNIDOS DE SANTA BÁRBARA - PERNAMBUCO, VOCÊ É NOSSO! O BAILE
TTITLE3=DOS 200 ANOS DA REVOLUÇÃO PERNAMBUCANA - A CELEBRAÇÃO DO LEÃO COROADO
TTITLE3=ALCEU VALENÇA
TTITLE4=S.C. MORRO DA CASA VERDE - A LUTA DE UM POVO, A FORÇA DE UMA RAÇA... L
TTITLE4=UIZA MAHIN, A LUZ DE DAOMÉ!
TTITLE5=G.R.E.S. AMIZADE DA ZONA LESTE - A CHAVE
TTITLE6=G.R.C.A.B.E.S. TRADIÇÃO ALBERTINENSE - DAS PRAÇAS AOS PALCOS, A TRUPE 
TTITLE6=ALBERTINENSE APRESENTA: AS MIL E UMA FACES DO ARTISTA BRASILEIRO
TTITLE7=G.R.C.E.S. UIRAPURU DA MOÓCA - O SUNTUOSO VOO DO UIRAPURU PELOS REINOS
TTITLE7=DAS 3 DEUSAS AFRICANAS
TTITLE8=G.R.C.E.S. COMBINADOS DE SAPOPEMBA - MAMONAS: UM SHOW DE FELICIDADE
TTITLE9=G.R.E.C.E.S. TORCIDA JOVEM SANTISTA - O CORSÁRIO ELEGANTE: O TERROR DO
TTITLE9=S SETE MARES
TTITLE10=G.R.C.E.S. CAMISA 12 - SÃO JORGE, O SANTO DAS 3 RELIGIÕES
TTITLE11=G.R.C.B.E.S. BRINCO DA MARQUESA - A MARQUESA E O OURO VERDE
EXTD=
EXTT0=
EXTT1=
EXTT2=
EXTT3=
EXTT4=
EXTT5=
EXTT6=
EXTT7=
EXTT8=
EXTT9=
EXTT10=
EXTT11=
PLAYORDER=
